<svg width="34" height="34" viewBox="0 0 34 34" fill="none" xmlns="http://www.w3.org/2000/svg">
<path d="M33.9999 16.0556C34.0064 18.5487 33.424 21.008 32.2999 23.2334C30.9672 25.9 28.9184 28.1429 26.3829 29.7109C23.8475 31.2788 20.9255 32.11 17.9444 32.1111C15.4513 32.1176 12.992 31.5351 10.7666 30.4111L0 34L3.58888 23.2334C2.46487 21.008 1.88239 18.5487 1.88889 16.0556C1.89004 13.0745 2.72115 10.1525 4.28913 7.61708C5.85711 5.08163 8.10002 3.03279 10.7666 1.70005C12.992 0.576034 15.4513 -0.00644632 17.9444 5.38108e-05H18.8889C22.826 0.21726 26.5446 1.87904 29.3328 4.66722C32.121 7.4554 33.7827 11.174 33.9999 15.1111V16.0556Z" fill="#D9DEE6"/>
</svg>
