<svg width="41" height="36" viewBox="0 0 41 36" fill="none" xmlns="http://www.w3.org/2000/svg">
<path d="M37.7138 3.18266C36.7153 2.17367 35.5297 1.37326 34.2249 0.827166C32.92 0.281074 31.5214 0 30.109 0C28.6966 0 27.298 0.281074 25.9931 0.827166C24.6882 1.37326 23.5027 2.17367 22.5042 3.18266L20.4319 5.2757L18.3596 3.18266C16.3427 1.14551 13.6072 0.00105592 10.7548 0.00105595C7.90247 0.00105597 5.16694 1.14551 3.15002 3.18266C1.1331 5.21981 2.12517e-08 7.98277 0 10.8637C-2.12517e-08 13.7447 1.1331 16.5077 3.15002 18.5448L5.22228 20.6379L20.4319 36L35.6415 20.6379L37.7138 18.5448C38.7128 17.5363 39.5052 16.3389 40.0459 15.0209C40.5866 13.703 40.8649 12.2903 40.8649 10.8637C40.8649 9.43713 40.5866 8.02451 40.0459 6.70657C39.5052 5.38862 38.7128 4.19118 37.7138 3.18266Z" fill="url(#paint0_linear_2_11)"/>
<defs>
<linearGradient id="paint0_linear_2_11" x1="35.1894" y1="2.15408" x2="11.4957" y2="25.6125" gradientUnits="userSpaceOnUse">
<stop stop-color="#00D894"/>
<stop offset="1" stop-color="#56E9CD"/>
</linearGradient>
</defs>
</svg>
