<svg width="340" height="169" viewBox="0 0 340 169" fill="none" xmlns="http://www.w3.org/2000/svg">
<path d="M76.1132 118.425H64.0422V130.496H76.1132V118.425ZM104.475 118.425H116.546V106.354H104.475V118.425ZM104.475 132.112V144.183H116.546V132.112H104.475ZM58.8498 132.112H46.7788V144.183H58.8498V132.112ZM58.8498 46.0421V33.9711H46.7788V46.0421H58.8498ZM76.1132 46.0421L88.1842 46.0421V33.9711L76.1132 33.9711V46.0421ZM76.1132 130.496H104.475V106.354L76.1132 106.354V130.496ZM92.4035 118.425V132.112H116.546V118.425L92.4035 118.425ZM104.475 120.041L58.8498 120.041V144.183H104.475V120.041ZM70.9208 132.112V46.0421H46.7788L46.7788 132.112H70.9208ZM58.8498 58.1131L76.1132 58.1131V33.9711H58.8498V58.1131ZM64.0422 46.0421V118.425H88.1842V46.0421L64.0422 46.0421ZM132.711 46.0421H144.782V33.9711H132.711V46.0421ZM132.711 132.112V144.183H144.782V132.112H132.711ZM115.447 132.112H103.376V144.183H115.447V132.112ZM115.447 46.0421V33.9711H103.376V46.0421L115.447 46.0421ZM120.64 46.0421V132.112H144.782V46.0421H120.64ZM132.711 120.041H115.447V144.183H132.711V120.041ZM127.518 132.112V46.0421L103.376 46.0421V132.112H127.518ZM115.447 58.1131L132.711 58.1131V33.9711L115.447 33.9711V58.1131ZM198.351 132.112L189.002 139.748L192.624 144.183H198.351V132.112ZM167.03 93.7631L176.379 86.1275L154.959 59.9004V93.7631H167.03ZM167.03 132.112V144.183H179.101V132.112H167.03ZM149.767 132.112H137.696V144.183H149.767V132.112ZM149.767 46.0421V33.9711H137.696V46.0421H149.767ZM167.03 46.0421H179.101V33.9711H167.03V46.0421ZM167.03 84.6381H154.959V118.67L176.403 92.2444L167.03 84.6381ZM198.351 46.0421V33.9711H192.601L188.978 38.4359L198.351 46.0421ZM219.19 46.0421L228.468 53.7645L244.943 33.9711L219.19 33.9711V46.0421ZM183.677 88.7074L174.4 80.985L167.939 88.7469L174.438 96.4763L183.677 88.7074ZM220.177 132.112V144.183H246.099L229.416 124.344L220.177 132.112ZM207.7 124.477L176.379 86.1275L157.681 101.399L189.002 139.748L207.7 124.477ZM154.959 93.7631V132.112H179.101V93.7631H154.959ZM167.03 120.041H149.767V144.183H167.03V120.041ZM161.838 132.112V46.0421H137.696V132.112H161.838ZM149.767 58.1131H167.03V33.9711H149.767V58.1131ZM154.959 46.0421V84.6381H179.101V46.0421H154.959ZM176.403 92.2444L207.724 53.6484L188.978 38.4359L157.657 77.0319L176.403 92.2444ZM198.351 58.1131H219.19V33.9711H198.351V58.1131ZM209.913 38.3197L174.4 80.985L192.955 96.4298L228.468 53.7645L209.913 38.3197ZM174.438 96.4763L210.938 139.881L229.416 124.344L192.916 80.9385L174.438 96.4763ZM220.177 120.041L198.351 120.041V144.183L220.177 144.183V120.041ZM248.795 59.9762V47.9051H236.724V59.9762H248.795ZM248.795 81.5554H236.724V93.6264H248.795V81.5554ZM277.773 81.5554H289.844V69.4844H277.773V81.5554ZM277.773 95.2428V107.314H289.844V95.2428H277.773ZM248.795 95.2428V83.1718H236.724V95.2428H248.795ZM248.795 118.055H236.724V130.126H248.795V118.055ZM281.473 118.055H293.544V105.984H281.473V118.055ZM281.473 132.112V144.183H293.544V132.112H281.473ZM231.532 132.112H219.461V144.183H231.532V132.112ZM231.532 45.9188V33.8478L219.461 33.8478V45.9188H231.532ZM281.473 45.9188L293.544 45.9188V33.8478L281.473 33.8478V45.9188ZM281.473 59.9762V72.0472H293.544V59.9762H281.473ZM236.724 59.9762V81.5554H260.866V59.9762H236.724ZM248.795 93.6264H277.773V69.4844H248.795V93.6264ZM265.702 81.5554V95.2428H289.844V81.5554H265.702ZM277.773 83.1718H248.795V107.314H277.773V83.1718ZM236.724 95.2428V118.055H260.866V95.2428H236.724ZM248.795 130.126H281.473V105.984H248.795V130.126ZM269.402 118.055V132.112H293.544V118.055H269.402ZM281.473 120.041H231.532V144.183H281.473V120.041ZM243.603 132.112V45.9188H219.461V132.112H243.603ZM231.532 57.9898L281.473 57.9898V33.8478H231.532V57.9898ZM269.402 45.9188V59.9762L293.544 59.9762V45.9188L269.402 45.9188ZM281.473 47.9051H248.795V72.0472H281.473V47.9051Z" fill="url(#paint0_linear_13_4)"/>
<rect x="6.0355" y="6.0355" width="327.929" height="156.923" rx="9.05326" stroke="url(#paint1_linear_13_4)" stroke-width="12.071"/>
<defs>
<linearGradient id="paint0_linear_13_4" x1="294.734" y1="84.4971" x2="44.2603" y2="84.4971" gradientUnits="userSpaceOnUse">
<stop stop-color="#29D78A"/>
<stop offset="1" stop-color="#6EF2F2"/>
</linearGradient>
<linearGradient id="paint1_linear_13_4" x1="340" y1="84.497" x2="2.76544e-06" y2="84.497" gradientUnits="userSpaceOnUse">
<stop stop-color="#29D78A"/>
<stop offset="1" stop-color="#6EF2F2"/>
</linearGradient>
</defs>
</svg>
